 <svg width="28" height="28" viewBox="0 0 28 28" fill="none" xmlns="http://www.w3.org/2000/svg">
                  <path fill-rule="evenodd" clip-rule="evenodd"
                    d="M10.0368 4.43217C10.5291 3.86426 11.1378 3.40895 11.8217 3.09712C12.5055 2.7853 13.2484 2.62428 14 2.625C15.5832 2.625 17.0018 3.325 17.9632 4.43217C18.713 4.37863 19.4655 4.4871 20.1697 4.7502C20.8739 5.01331 21.5132 5.4249 22.0442 5.957C22.5761 6.4879 22.9875 7.12702 23.2506 7.83096C23.5137 8.53491 23.6223 9.28722 23.569 10.0368C24.1367 10.5292 24.5918 11.138 24.9034 11.8218C25.215 12.5057 25.3759 13.2485 25.375 14C25.3757 14.7516 25.2147 15.4945 24.9029 16.1783C24.5911 16.8622 24.1357 17.4709 23.5678 17.9632C23.6211 18.7128 23.5125 19.4651 23.2494 20.169C22.9863 20.873 22.5749 21.5121 22.043 22.043C21.5121 22.5749 20.873 22.9863 20.169 23.2494C19.4651 23.5125 18.7128 23.6211 17.9632 23.5678C17.4709 24.1357 16.8622 24.591 16.1783 24.9029C15.4945 25.2147 14.7516 25.3757 14 25.375C13.2484 25.3757 12.5055 25.2147 11.8217 24.9029C11.1378 24.591 10.5291 24.1357 10.0368 23.5678C9.28711 23.6215 8.53461 23.5132 7.83044 23.2503C7.12628 22.9874 6.48693 22.5761 5.95584 22.0442C5.4238 21.5131 5.01226 20.8738 4.74915 20.1697C4.48605 19.4655 4.37754 18.713 4.431 17.9632C3.86332 17.4708 3.40822 16.862 3.0966 16.1782C2.78498 15.4943 2.62414 14.7515 2.625 14C2.625 12.4168 3.325 10.9982 4.43217 10.0368C4.3788 9.28721 4.48736 8.53488 4.75046 7.83092C5.01356 7.12696 5.42506 6.48786 5.957 5.957C6.48786 5.42505 7.12697 5.01356 7.83093 4.75045C8.53489 4.48735 9.28721 4.3788 10.0368 4.43217ZM18.2117 11.8837C18.2817 11.7904 18.3323 11.6841 18.3606 11.5709C18.389 11.4578 18.3944 11.3402 18.3766 11.2249C18.3588 11.1097 18.3181 10.9991 18.257 10.8998C18.1959 10.8005 18.1155 10.7144 18.0206 10.6466C17.9258 10.5788 17.8183 10.5306 17.7045 10.5049C17.5908 10.4792 17.473 10.4766 17.3582 10.497C17.2434 10.5175 17.1339 10.5607 17.036 10.6241C16.9381 10.6876 16.8539 10.7699 16.7883 10.8663L13.013 16.1513L11.1183 14.2567C10.9525 14.1021 10.7331 14.018 10.5064 14.022C10.2797 14.026 10.0634 14.1178 9.90311 14.2781C9.7428 14.4384 9.65096 14.6547 9.64697 14.8814C9.64297 15.1081 9.72711 15.3275 9.88167 15.4933L12.5067 18.1183C12.5965 18.2081 12.7048 18.2772 12.824 18.3209C12.9432 18.3646 13.0705 18.3819 13.1971 18.3714C13.3236 18.361 13.4464 18.3231 13.5568 18.2605C13.6673 18.1978 13.7628 18.1119 13.8367 18.0087L18.2117 11.8837Z"
                    fill="#BAD4DA" />
                </svg>
